<svg width="1101" height="196" viewBox="0 0 1101 196" fill="none" xmlns="http://www.w3.org/2000/svg">
<path fill-rule="evenodd" clip-rule="evenodd" d="M116.044 16.3978C114.241 16.1366 112.43 16.6752 110.989 17.8341C109.508 19.0093 108.582 20.7068 108.381 22.6083C107.954 26.4522 110.699 29.9288 114.499 30.3613C140.702 33.3156 161.069 53.9387 164.016 80.4948C164.41 84.053 167.364 86.738 170.89 86.738C171.156 86.738 171.414 86.7216 171.679 86.689C173.523 86.485 175.165 85.5628 176.324 84.0938C177.476 82.6248 177.999 80.7967 177.789 78.9278C174.119 45.7939 148.736 20.0784 116.044 16.3978ZM116.548 44.8342C112.7 44.116 109.166 46.597 108.433 50.3919C107.7 54.1867 110.164 57.8919 113.907 58.6345C125.177 60.8543 133.88 69.6683 136.085 81.0938V81.1019C136.713 84.3908 139.579 86.782 142.88 86.782C143.323 86.782 143.765 86.7412 144.216 86.6596C147.959 85.9006 150.423 82.2037 149.69 78.4006C146.398 61.3358 133.397 48.1557 116.548 44.8342ZM129.335 123.239C132.985 121.113 137.106 118.712 142.306 119.829C147.015 120.833 163.067 133.997 167.463 138.559C170.345 141.546 171.947 144.631 172.196 147.716C172.631 159.819 156.353 173.635 153.391 175.357C149.454 178.222 144.874 179.666 139.73 179.666C134.473 179.666 128.612 178.157 122.221 175.145C87.5402 160.52 34.5618 108.053 20.5545 73.2869C14.7422 60.3435 14.702 49.6688 20.4579 41.6465C22.7522 37.8842 35.8338 22.1578 47.5468 22.6557C50.6622 22.925 53.6891 24.5409 56.6596 27.4789C61.1517 31.9266 73.8549 48.1916 74.837 52.9659C75.9238 58.2705 73.5409 62.4898 71.4237 66.1949C70.9721 66.9914 70.3637 67.9366 69.6971 68.9721C67.1673 72.9022 63.8002 78.133 64.9916 81.4724C73.5329 102.659 93.2639 121.143 114.243 129.827C117.487 131.018 122.662 127.592 126.539 125.025C127.549 124.356 128.471 123.745 129.248 123.29L129.335 123.239Z" fill="black" style="fill:black;fill-opacity:1;"/>
<path d="M265.844 72.2344C264.75 75.8906 262.766 79.1406 259.891 81.9844C257.047 84.8281 253.578 87.0312 249.484 88.5938C245.391 90.1562 241.031 90.9375 236.406 90.9375C230.062 90.9375 224.297 89.4219 219.109 86.3906C213.922 83.3281 209.859 79.1562 206.922 73.875C203.984 68.5938 202.516 62.7656 202.516 56.3906C202.516 51.5781 203.375 47.0469 205.094 42.7969C206.844 38.5156 209.203 34.8438 212.172 31.7812C215.172 28.7188 218.766 26.2969 222.953 24.5156C227.172 22.7344 231.656 21.8438 236.406 21.8438C243.219 21.8438 249.281 23.4844 254.594 26.7656C259.938 30.0156 263.438 34.2031 265.094 39.3281L252.438 45.375C251.188 42.4062 249.141 40.0469 246.297 38.2969C243.453 36.5469 240.156 35.6719 236.406 35.6719C230.719 35.6719 226.078 37.625 222.484 41.5312C218.891 45.4375 217.094 50.3906 217.094 56.3906C217.094 62.3594 218.891 67.3125 222.484 71.25C226.109 75.1875 230.75 77.1562 236.406 77.1562C240.406 77.1562 243.875 76.1719 246.812 74.2031C249.75 72.2344 251.75 69.5938 252.812 66.2812L265.844 72.2344ZM287.5 26.3438C292.75 23.3438 298.594 21.8438 305.031 21.8438C311.469 21.8438 317.312 23.3438 322.562 26.3438C327.812 29.3438 331.922 33.4844 334.891 38.7656C337.891 44.0469 339.391 49.9219 339.391 56.3906C339.391 62.8594 337.891 68.7344 334.891 74.0156C331.922 79.2969 327.812 83.4375 322.562 86.4375C317.312 89.4375 311.469 90.9375 305.031 90.9375C298.594 90.9375 292.75 89.4375 287.5 86.4375C282.281 83.4375 278.188 79.2969 275.219 74.0156C272.25 68.7344 270.766 62.8594 270.766 56.3906C270.766 49.9219 272.25 44.0469 275.219 38.7656C278.188 33.4844 282.281 29.3438 287.5 26.3438ZM319.094 41.625C315.344 37.6562 310.656 35.6719 305.031 35.6719C299.406 35.6719 294.719 37.6562 290.969 41.625C287.219 45.5625 285.344 50.4844 285.344 56.3906C285.344 62.2969 287.219 67.2344 290.969 71.2031C294.719 75.1719 299.406 77.1562 305.031 77.1562C310.656 77.1562 315.344 75.1719 319.094 71.2031C322.844 67.2344 324.719 62.2969 324.719 56.3906C324.719 50.4844 322.844 45.5625 319.094 41.625ZM347.688 22.7812H359.781L387.109 61.9688V22.7812H401.312V90H389.406L361.891 50.8125V90H347.688V22.7812ZM462.016 22.7812V36.4219H442.328V90H428.125V36.4219H408.531V22.7812H462.016ZM503.406 90L499.188 78.75H473.266L468.953 90H453.859L480.578 22.7812H492.062L518.875 90H503.406ZM477.953 66.5625H494.5L486.344 45.0938L477.953 66.5625ZM586.094 72.2344C585 75.8906 583.016 79.1406 580.141 81.9844C577.297 84.8281 573.828 87.0312 569.734 88.5938C565.641 90.1562 561.281 90.9375 556.656 90.9375C550.312 90.9375 544.547 89.4219 539.359 86.3906C534.172 83.3281 530.109 79.1562 527.172 73.875C524.234 68.5938 522.766 62.7656 522.766 56.3906C522.766 51.5781 523.625 47.0469 525.344 42.7969C527.094 38.5156 529.453 34.8438 532.422 31.7812C535.422 28.7188 539.016 26.2969 543.203 24.5156C547.422 22.7344 551.906 21.8438 556.656 21.8438C563.469 21.8438 569.531 23.4844 574.844 26.7656C580.188 30.0156 583.688 34.2031 585.344 39.3281L572.688 45.375C571.438 42.4062 569.391 40.0469 566.547 38.2969C563.703 36.5469 560.406 35.6719 556.656 35.6719C550.969 35.6719 546.328 37.625 542.734 41.5312C539.141 45.4375 537.344 50.3906 537.344 56.3906C537.344 62.3594 539.141 67.3125 542.734 71.25C546.359 75.1875 551 77.1562 556.656 77.1562C560.656 77.1562 564.125 76.1719 567.062 74.2031C570 72.2344 572 69.5938 573.062 66.2812L586.094 72.2344ZM642.297 22.7812V36.4219H622.609V90H608.406V36.4219H588.812V22.7812H642.297ZM649.375 22.7812H690.531V36.4219H663.578V48.5156H687.578V62.1562H663.578V76.3594H690.531V90H649.375V22.7812ZM744.25 90L740.031 78.75H714.109L709.797 90H694.703L721.422 22.7812H732.906L759.719 90H744.25ZM718.797 66.5625H735.344L727.188 45.0938L718.797 66.5625ZM764.641 22.7812H814.469V32.3906L782.125 76.3594H814.75V90H762.719V80.3906L795.156 36.4219H764.641V22.7812ZM862.281 14.3438C859.281 17.1562 855.438 18.5625 850.75 18.5625C846.062 18.5625 842.219 17.1562 839.219 14.3438C836.219 11.5312 834.719 7.76563 834.719 3.04688H844.984C844.984 5.01562 845.516 6.60938 846.578 7.82812C847.672 9.04688 849.062 9.65625 850.75 9.65625C852.438 9.65625 853.812 9.04688 854.875 7.82812C855.938 6.60938 856.469 5.01562 856.469 3.04688H866.781C866.781 7.76563 865.281 11.5312 862.281 14.3438ZM867.719 90L863.5 78.75H837.578L833.266 90H818.172L844.891 22.7812H856.375L883.188 90H867.719ZM842.266 66.5625H858.812L850.656 45.0938L842.266 66.5625ZM886.188 71.3906V58.6875H917.312V71.3906H886.188ZM924.812 90V22.7812H942.062L962.031 69.0938L982.984 22.7812H997.469V90H983.266V50.5312L966.062 90H955.797L939.016 50.5312V90H924.812ZM1047.25 14.3438C1044.25 17.1562 1040.41 18.5625 1035.72 18.5625C1031.03 18.5625 1027.19 17.1562 1024.19 14.3438C1021.19 11.5312 1019.69 7.76563 1019.69 3.04688H1029.95C1029.95 5.01562 1030.48 6.60938 1031.55 7.82812C1032.64 9.04688 1034.03 9.65625 1035.72 9.65625C1037.41 9.65625 1038.78 9.04688 1039.84 7.82812C1040.91 6.60938 1041.44 5.01562 1041.44 3.04688H1051.75C1051.75 7.76563 1050.25 11.5312 1047.25 14.3438ZM1052.69 90L1048.47 78.75H1022.55L1018.23 90H1003.14L1029.86 22.7812H1041.34L1068.16 90H1052.69ZM1027.23 66.5625H1043.78L1035.62 45.0938L1027.23 66.5625Z" fill="black" style="fill:black;fill-opacity:1;"/>
<path d="M223.17 140.303C226.314 140.303 229.562 141.021 232.911 142.456C236.261 143.869 238.87 145.646 240.738 147.788L234.723 155.991C232.923 154.237 230.906 152.858 228.673 151.855C226.463 150.83 224.355 150.317 222.35 150.317C220.595 150.317 219.171 150.693 218.077 151.445C217.006 152.174 216.471 153.132 216.471 154.316C216.471 155.205 216.756 155.98 217.325 156.641C217.895 157.301 218.658 157.86 219.615 158.315C220.595 158.748 221.712 159.159 222.965 159.546C224.218 159.91 225.528 160.298 226.896 160.708C228.285 161.095 229.675 161.54 231.065 162.041C232.455 162.52 233.777 163.146 235.03 163.921C236.284 164.673 237.389 165.55 238.346 166.553C239.326 167.533 240.1 168.786 240.67 170.312C241.24 171.816 241.524 173.525 241.524 175.439C241.524 177.399 241.114 179.29 240.294 181.113C239.474 182.913 238.312 184.531 236.808 185.967C235.326 187.402 233.424 188.553 231.1 189.419C228.798 190.262 226.257 190.684 223.478 190.684C219.718 190.684 215.924 189.806 212.096 188.052C208.268 186.274 205.294 184.053 203.175 181.387L209.806 173.833C211.902 175.998 214.033 177.673 216.197 178.857C218.362 180.042 220.789 180.635 223.478 180.635C225.688 180.635 227.477 180.168 228.844 179.233C230.211 178.299 230.895 177.057 230.895 175.508C230.895 174.642 230.61 173.879 230.04 173.218C229.47 172.557 228.707 172.021 227.75 171.611C226.793 171.201 225.688 170.825 224.435 170.483C223.204 170.119 221.894 169.754 220.504 169.39C219.137 169.002 217.77 168.581 216.402 168.125C215.035 167.669 213.725 167.077 212.472 166.348C211.241 165.618 210.147 164.775 209.19 163.818C208.233 162.861 207.47 161.642 206.9 160.161C206.331 158.657 206.046 156.96 206.046 155.068C206.046 150.853 207.652 147.344 210.865 144.541C214.078 141.715 218.18 140.303 223.17 140.303ZM292.179 177.046C291.381 179.712 289.934 182.082 287.838 184.155C285.764 186.229 283.235 187.835 280.25 188.975C277.265 190.114 274.086 190.684 270.714 190.684C266.088 190.684 261.884 189.578 258.102 187.368C254.319 185.135 251.357 182.093 249.215 178.242C247.073 174.391 246.002 170.142 246.002 165.493C246.002 161.984 246.629 158.68 247.882 155.581C249.158 152.459 250.878 149.782 253.043 147.549C255.23 145.316 257.851 143.55 260.904 142.251C263.98 140.952 267.25 140.303 270.714 140.303C275.681 140.303 280.102 141.499 283.976 143.892C287.872 146.261 290.424 149.315 291.632 153.052L282.403 157.461C281.492 155.296 279.999 153.576 277.926 152.3C275.852 151.024 273.448 150.386 270.714 150.386C266.567 150.386 263.183 151.81 260.562 154.658C257.942 157.507 256.632 161.118 256.632 165.493C256.632 169.845 257.942 173.457 260.562 176.328C263.206 179.199 266.59 180.635 270.714 180.635C273.631 180.635 276.16 179.917 278.302 178.481C280.444 177.046 281.902 175.12 282.677 172.705L292.179 177.046ZM329.161 190L326.085 181.797H307.184L304.039 190H293.033L312.516 140.986H320.89L340.44 190H329.161ZM310.602 172.91H322.667L316.72 157.256L310.602 172.91ZM344.61 140.986H353.429L373.355 169.561V140.986H383.712V190H375.03L354.967 161.426V190H344.61V140.986ZM411.603 132.168L408.15 137.021H399.4L406.202 126.084H416.969L423.839 137.021H415.089L411.603 132.168ZM423.976 190L420.899 181.797H401.998L398.854 190H387.848L407.33 140.986H415.704L435.255 190H423.976ZM405.416 172.91H417.481L411.534 157.256L405.416 172.91ZM439.425 140.986H448.243L468.17 169.561V140.986H478.526V190H469.845L449.781 161.426V190H439.425V140.986ZM502.76 140.986C507.408 140.986 511.624 142.035 515.406 144.131C519.212 146.227 522.197 149.132 524.361 152.847C526.526 156.561 527.608 160.708 527.608 165.288C527.608 169.959 526.526 174.186 524.361 177.969C522.197 181.729 519.212 184.679 515.406 186.821C511.624 188.94 507.408 190 502.76 190H485.978V140.986H502.76ZM503.478 180.054C507.351 180.054 510.553 178.652 513.082 175.85C515.634 173.047 516.91 169.526 516.91 165.288C516.91 161.118 515.646 157.689 513.116 155C510.61 152.288 507.397 150.933 503.478 150.933H496.334V180.054H503.478ZM580.724 190L577.647 181.797H558.746L555.602 190H544.596L564.078 140.986H572.452L592.003 190H580.724ZM562.164 172.91H574.229L568.282 157.256L562.164 172.91ZM641.017 177.046C640.219 179.712 638.772 182.082 636.676 184.155C634.602 186.229 632.073 187.835 629.088 188.975C626.103 190.114 622.924 190.684 619.552 190.684C614.926 190.684 610.722 189.578 606.939 187.368C603.157 185.135 600.195 182.093 598.053 178.242C595.911 174.391 594.84 170.142 594.84 165.493C594.84 161.984 595.466 158.68 596.72 155.581C597.996 152.459 599.716 149.782 601.881 147.549C604.068 145.316 606.689 143.55 609.742 142.251C612.818 140.952 616.088 140.303 619.552 140.303C624.519 140.303 628.94 141.499 632.813 143.892C636.71 146.261 639.262 149.315 640.47 153.052L631.241 157.461C630.33 155.296 628.837 153.576 626.764 152.3C624.69 151.024 622.286 150.386 619.552 150.386C615.405 150.386 612.021 151.81 609.4 154.658C606.78 157.507 605.47 161.118 605.47 165.493C605.47 169.845 606.78 173.457 609.4 176.328C612.044 179.199 615.427 180.635 619.552 180.635C622.468 180.635 624.998 179.917 627.14 178.481C629.282 177.046 630.74 175.12 631.515 172.705L641.017 177.046ZM646.554 140.986H676.563V150.933H656.91V159.751H674.41V169.697H656.91V180.054H676.563V190H646.554V140.986ZM700.25 140.303C703.395 140.303 706.642 141.021 709.991 142.456C713.341 143.869 715.95 145.646 717.818 147.788L711.803 155.991C710.003 154.237 707.986 152.858 705.753 151.855C703.543 150.83 701.435 150.317 699.43 150.317C697.675 150.317 696.251 150.693 695.157 151.445C694.086 152.174 693.551 153.132 693.551 154.316C693.551 155.205 693.836 155.98 694.405 156.641C694.975 157.301 695.738 157.86 696.695 158.315C697.675 158.748 698.792 159.159 700.045 159.546C701.298 159.91 702.608 160.298 703.976 160.708C705.366 161.095 706.756 161.54 708.146 162.041C709.535 162.52 710.857 163.146 712.11 163.921C713.364 164.673 714.469 165.55 715.426 166.553C716.406 167.533 717.18 168.786 717.75 170.312C718.32 171.816 718.604 173.525 718.604 175.439C718.604 177.399 718.194 179.29 717.374 181.113C716.554 182.913 715.392 184.531 713.888 185.967C712.407 187.402 710.504 188.553 708.18 189.419C705.878 190.262 703.338 190.684 700.558 190.684C696.798 190.684 693.004 189.806 689.176 188.052C685.348 186.274 682.374 184.053 680.255 181.387L686.886 173.833C688.982 175.998 691.113 177.673 693.277 178.857C695.442 180.042 697.869 180.635 700.558 180.635C702.768 180.635 704.557 180.168 705.924 179.233C707.291 178.299 707.975 177.057 707.975 175.508C707.975 174.642 707.69 173.879 707.12 173.218C706.55 172.557 705.787 172.021 704.83 171.611C703.873 171.201 702.768 170.825 701.515 170.483C700.284 170.119 698.974 169.754 697.584 169.39C696.217 169.002 694.85 168.581 693.482 168.125C692.115 167.669 690.805 167.077 689.552 166.348C688.321 165.618 687.228 164.775 686.271 163.818C685.313 162.861 684.55 161.642 683.98 160.161C683.411 158.657 683.126 156.96 683.126 155.068C683.126 150.853 684.732 147.344 687.945 144.541C691.158 141.715 695.26 140.303 700.25 140.303ZM759.723 140.986V150.933H745.367V190H735.011V150.933H720.724V140.986H759.723ZM824.015 177.046C823.217 179.712 821.77 182.082 819.674 184.155C817.6 186.229 815.071 187.835 812.086 188.975C809.101 190.114 805.922 190.684 802.55 190.684C797.924 190.684 793.72 189.578 789.938 187.368C786.155 185.135 783.193 182.093 781.051 178.242C778.909 174.391 777.838 170.142 777.838 165.493C777.838 161.984 778.465 158.68 779.718 155.581C780.994 152.459 782.714 149.782 784.879 147.549C787.066 145.316 789.687 143.55 792.74 142.251C795.816 140.952 799.086 140.303 802.55 140.303C807.517 140.303 811.938 141.499 815.812 143.892C819.708 146.261 822.26 149.315 823.468 153.052L814.239 157.461C813.328 155.296 811.835 153.576 809.762 152.3C807.688 151.024 805.284 150.386 802.55 150.386C798.403 150.386 795.019 151.81 792.398 154.658C789.778 157.507 788.468 161.118 788.468 165.493C788.468 169.845 789.778 173.457 792.398 176.328C795.042 179.199 798.425 180.635 802.55 180.635C805.466 180.635 807.996 179.917 810.138 178.481C812.28 177.046 813.738 175.12 814.513 172.705L824.015 177.046ZM839.806 143.584C843.634 141.396 847.895 140.303 852.589 140.303C857.283 140.303 861.544 141.396 865.372 143.584C869.2 145.771 872.197 148.791 874.361 152.642C876.549 156.493 877.643 160.776 877.643 165.493C877.643 170.21 876.549 174.494 874.361 178.345C872.197 182.196 869.2 185.215 865.372 187.402C861.544 189.59 857.283 190.684 852.589 190.684C847.895 190.684 843.634 189.59 839.806 187.402C836 185.215 833.015 182.196 830.851 178.345C828.686 174.494 827.604 170.21 827.604 165.493C827.604 160.776 828.686 156.493 830.851 152.642C833.015 148.791 836 145.771 839.806 143.584ZM862.843 154.727C860.108 151.833 856.69 150.386 852.589 150.386C848.487 150.386 845.069 151.833 842.335 154.727C839.601 157.598 838.233 161.187 838.233 165.493C838.233 169.8 839.601 173.4 842.335 176.294C845.069 179.188 848.487 180.635 852.589 180.635C856.69 180.635 860.108 179.188 862.843 176.294C865.577 173.4 866.944 169.8 866.944 165.493C866.944 161.187 865.577 157.598 862.843 154.727ZM900.475 140.986C905.123 140.986 909.339 142.035 913.121 144.131C916.926 146.227 919.911 149.132 922.076 152.847C924.241 156.561 925.323 160.708 925.323 165.288C925.323 169.959 924.241 174.186 922.076 177.969C919.911 181.729 916.926 184.679 913.121 186.821C909.339 188.94 905.123 190 900.475 190H883.692V140.986H900.475ZM901.192 180.054C905.066 180.054 908.268 178.652 910.797 175.85C913.349 173.047 914.625 169.526 914.625 165.288C914.625 161.118 913.36 157.689 910.831 155C908.325 152.288 905.112 150.933 901.192 150.933H894.049V180.054H901.192ZM995.938 190H985.104L982.506 187.129C978.632 189.499 974.223 190.684 969.278 190.684C964.584 190.684 960.323 189.59 956.495 187.402C952.69 185.215 949.705 182.196 947.54 178.345C945.375 174.494 944.293 170.21 944.293 165.493C944.293 160.776 945.375 156.493 947.54 152.642C949.705 148.791 952.69 145.771 956.495 143.584C960.323 141.396 964.584 140.303 969.278 140.303C973.972 140.303 978.233 141.396 982.062 143.584C985.89 145.771 988.886 148.791 991.051 152.642C993.238 156.493 994.332 160.776 994.332 165.493C994.332 171.737 992.441 177.171 988.658 181.797L995.938 190ZM969.278 180.635C971.557 180.635 973.608 180.168 975.431 179.233L964.801 167.305H975.636L981.446 173.765C982.905 171.349 983.634 168.592 983.634 165.493C983.634 161.187 982.267 157.598 979.532 154.727C976.798 151.833 973.38 150.386 969.278 150.386C965.177 150.386 961.759 151.833 959.024 154.727C956.29 157.598 954.923 161.187 954.923 165.493C954.923 169.8 956.29 173.4 959.024 176.294C961.759 179.188 965.177 180.635 969.278 180.635ZM1039.72 190H1027.11L1016.04 171.304H1010.74V190H1000.38V140.986H1019.28C1022.02 140.986 1024.57 141.659 1026.94 143.003C1029.31 144.347 1031.2 146.193 1032.61 148.54C1034.03 150.864 1034.73 153.394 1034.73 156.128C1034.73 159.227 1034.04 161.961 1032.65 164.331C1031.26 166.701 1029.34 168.49 1026.91 169.697L1039.72 190ZM1010.74 151.001V162.349H1018.22C1019.91 162.349 1021.33 161.802 1022.5 160.708C1023.66 159.614 1024.24 158.247 1024.24 156.606C1024.24 155.034 1023.66 153.713 1022.5 152.642C1021.33 151.548 1019.91 151.001 1018.22 151.001H1010.74Z" fill="black" style="fill:black;fill-opacity:1;"/>
</svg>
