<svg width="643" height="260" viewBox="0 0 643 260" fill="none" xmlns="http://www.w3.org/2000/svg">
<path d="M106 0C92.9906 0 82.4444 10.5462 82.4444 23.5556C82.4444 24.6909 82.5248 25.8075 82.68 26.9C48.5037 36.9597 23.5556 68.5663 23.5556 106V200.222H11.7778C5.27309 200.222 0 205.495 0 212C0 218.505 5.27309 223.778 11.7778 223.778H200.222C206.727 223.778 212 218.505 212 212C212 205.495 206.727 200.222 200.222 200.222H188.444V106C188.444 68.5663 163.496 36.9597 129.32 26.9C129.475 25.8075 129.556 24.6909 129.556 23.5556C129.556 10.5462 119.009 0 106 0Z" fill="black" style="fill:black;fill-opacity:1;"/>
<path d="M129.556 247.333C129.556 253.838 124.282 259.111 117.778 259.111H94.2222C87.7175 259.111 82.4444 253.838 82.4444 247.333C82.4444 240.829 87.7175 235.556 94.2222 235.556H117.778C124.282 235.556 129.556 240.829 129.556 247.333Z" fill="black" style="fill:black;fill-opacity:1;"/>
<path d="M252.82 57.9609V198H220.789V57.9609H252.82ZM365.418 144.582C365.418 148.423 365.027 152.557 364.246 156.984H297.254C300.053 167.531 307.312 172.805 319.031 172.805C322.807 172.805 326.453 171.991 329.969 170.363C333.484 168.736 335.893 166.75 337.195 164.406L362.391 179.836C358.875 186.216 353.211 191.164 345.398 194.68C337.651 198.195 328.602 199.953 318.25 199.953C303.732 199.953 291.427 194.973 281.336 185.012C271.245 175.051 266.199 162.844 266.199 148.391C266.199 134.003 271.147 121.926 281.043 112.16C290.939 102.329 303.146 97.4141 317.664 97.4141C331.01 97.4141 342.306 101.971 351.551 111.086C360.796 120.201 365.418 131.366 365.418 144.582ZM297.254 136.77H333.191C332.54 132.863 330.555 129.673 327.234 127.199C323.914 124.66 320.105 123.391 315.809 123.391C305.978 123.391 299.793 127.85 297.254 136.77ZM434.168 97.4141C438.921 97.4141 442.99 98.0651 446.375 99.3672L444.617 129.445C440.451 127.948 436.056 127.199 431.434 127.199C427.983 127.199 424.24 128.469 420.203 131.008C416.167 133.482 413.172 136.932 411.219 141.359V198H379.188V99.3672H411.219V110.598C413.367 106.757 416.688 103.599 421.18 101.125C425.672 98.651 430.001 97.4141 434.168 97.4141ZM526.062 168.215L527.625 196.633C523.328 198.716 518.055 199.758 511.805 199.758C499.565 199.758 489.702 196.112 482.215 188.82C474.793 181.464 471.082 171.307 471.082 158.352V130.227H453.211V99.3672H471.082V74.1719H503.211V99.3672H526.453V130.227H503.211V156.789C503.211 160.565 504.546 163.69 507.215 166.164C509.884 168.573 513.107 169.777 516.883 169.777C520.008 169.777 523.068 169.257 526.062 168.215ZM606.727 99.3672H641.297L587.098 229.152H552.527L571.082 188.43L534.266 99.3672H568.738L587.684 150.832L606.727 99.3672Z" fill="black" style="fill:black;fill-opacity:1;"/>
<path d="M131.685 182L125.972 166.692H88.3252L82.4658 182H55.5859L97.1143 76.9707H117.402L159.077 182H131.685ZM96.5283 145.086H117.842L107.222 116.888L96.5283 145.086Z" fill="white" style="fill:white;fill-opacity:1;"/>
</svg>
